<?xml version="1.0" encoding="UTF-8" standalone="no"?> <svg width="64" height="64" viewBox="0 0 64 64" fill="none" xmlns="http://www.w3.org/2000/svg">
<path d="M3 55V57C3 58.0609 3.42143 59.0783 4.17157 59.8284C4.92172 60.5786 5.93913 61 7 61H57C58.0609 61 59.0783 60.5786 59.8284 59.8284C60.5786 59.0783 61 58.0609 61 57V55H3Z" fill="#58595B"/>
<path d="M8 17H56C56.5304 17 57.0391 17.2107 57.4142 17.5858C57.7893 17.9609 58 18.4696 58 19V55H6V19C6 18.4696 6.21071 17.9609 6.58579 17.5858C6.96086 17.2107 7.46957 17 8 17V17Z" fill="#2488FF"/>
<path d="M54 21H10V49H54V21Z" fill="#FFDA44"/>
<path d="M27 58H37C37.5304 58 38.0391 57.7893 38.4142 57.4142C38.7893 57.0391 39 56.5304 39 56V55H25V56C25 56.5304 25.2107 57.0391 25.5858 57.4142C25.9609 57.7893 26.4696 58 27 58Z" fill="#A7A9AC"/>
<path d="M20 49H54V21C54 35.371 38.793 49 20 49Z" fill="#FFCD00"/>
<path d="M43 27V31C43 31.5304 43.2107 32.0391 43.5858 32.4142C43.9609 32.7893 44.4696 33 45 33H59C59.5304 33 60.0391 32.7893 60.4142 32.4142C60.7893 32.0391 61 31.5304 61 31V27.02L43 27Z" fill="#D80027"/>
<path d="M43 7V27.002L61 27.02V7H43Z" fill="#D1E7F8"/>
<path d="M59 3H45C44.4696 3 43.9609 3.21071 43.5858 3.58579C43.2107 3.96086 43 4.46957 43 5V7H61V5C61 4.46957 60.7893 3.96086 60.4142 3.58579C60.0391 3.21071 59.5304 3 59 3Z" fill="#D80027"/>
<path d="M37 51H35V53H37V51Z" fill="#F1F2F2"/>
<path d="M33 51H31V53H33V51Z" fill="#F1F2F2"/>
<path d="M29 51H27V53H29V51Z" fill="#F1F2F2"/>
<path d="M53 29H51V31H53V29Z" fill="#F1F2F2"/>
<path d="M57 17H55V19H57V17Z" fill="#5EAC24"/>
<path d="M53 17H51V19H53V17Z" fill="#5EAC24"/>
<path d="M49 17H47V19H49V17Z" fill="#5EAC24"/>
<path d="M37 34H35V36H37V34Z" fill="#5EAC24"/>
<path d="M33 34H31V36H33V34Z" fill="#5EAC24"/>
<path d="M29 34H27V36H29V34Z" fill="#5EAC24"/>
</svg>
